<?xml version="1.0" standalone="no"?>
<!DOCTYPE svg PUBLIC "-//W3C//DTD SVG 20010904//EN"
 "http://www.w3.org/TR/2001/REC-SVG-20010904/DTD/svg10.dtd">
<svg version="1.0" xmlns="http://www.w3.org/2000/svg"
 width="700.000000pt" height="700.000000pt" viewBox="0 0 700.000000 700.000000"
 preserveAspectRatio="xMidYMid meet">
<metadata>
Created by potrace 1.14, written by Peter Selinger 2001-2017
</metadata>
<g transform="translate(0.000000,700.000000) scale(0.100000,-0.100000)"
fill="#000000" stroke="none">
<path d="M3588 6835 c-2 -2 -46 -5 -98 -9 -215 -15 -482 -68 -711 -142 -113
-36 -293 -105 -327 -124 -9 -5 -47 -23 -83 -39 -36 -16 -103 -50 -150 -76 -80
-46 -379 -240 -389 -254 -3 -4 -30 -24 -60 -46 -30 -22 -57 -42 -60 -45 -3 -3
-40 -34 -84 -69 -86 -70 -221 -202 -306 -300 -47 -54 -277 -361 -299 -399 -6
-10 -28 -7 -107 14 -127 34 -264 38 -339 10 -119 -46 -229 -146 -283 -258 -43
-87 -53 -126 -56 -210 -8 -186 68 -333 218 -428 272 -171 331 -224 396 -355
51 -104 69 -193 65 -320 -4 -134 -38 -240 -109 -345 -49 -72 -87 -114 -146
-162 -47 -37 -65 -46 -197 -102 -203 -84 -352 -244 -423 -455 -28 -83 -34
-127 -35 -241 0 -122 8 -179 36 -260 106 -305 399 -508 733 -508 137 0 202 17
370 100 76 38 165 75 199 83 60 14 164 14 222 0 219 -53 354 -170 436 -377 30
-75 33 -93 33 -193 1 -126 -7 -154 -89 -335 -75 -163 -87 -204 -93 -303 -5
-105 19 -195 79 -288 119 -183 350 -272 566 -218 122 31 227 113 301 236 20
35 44 63 52 63 8 0 52 -7 97 -14 45 -8 99 -17 120 -21 21 -3 50 -8 63 -10 23
-5 85 -15 185 -30 22 -3 60 -8 85 -10 25 -3 56 -7 70 -10 101 -18 442 -26 590
-14 88 8 269 32 315 43 11 2 43 10 70 16 28 6 59 13 70 16 112 22 423 127 575
196 238 107 527 281 695 419 202 167 374 346 559 579 20 26 176 251 176 254 0
2 18 34 41 71 116 191 234 465 302 701 20 66 43 154 52 195 8 41 17 81 20 90
12 52 45 287 53 377 14 169 6 631 -13 702 -2 8 -6 37 -10 65 -10 82 -55 296
-77 365 -39 126 -50 156 -105 295 -112 283 -246 531 -403 744 -85 115 -119
158 -155 198 -16 18 -64 70 -105 116 -63 69 -176 176 -299 285 -59 53 -262
197 -365 262 -340 210 -767 371 -1141 430 -112 18 -117 18 -175 24 -30 3 -84
8 -120 12 -60 6 -427 13 -432 9z"/>
</g>
</svg>
